<svg xmlns="http://www.w3.org/2000/svg" width="207.906" height="48.531" viewBox="0 0 207.906 48.531">
  <defs>
    <style>
      .cls-1 {
        fill: #fff;
        fill-rule: evenodd;
      }
    </style>
  </defs>
  <path id="logo.svg" class="cls-1" d="M1.672,62.16A19.049,19.049,0,0,0,9.3,68.172a19.746,19.746,0,0,0,4.212,1.3,22.269,22.269,0,0,0,4.068.4A23.484,23.484,0,0,0,26.116,68.5a14.959,14.959,0,0,0,5.652-3.708,13.786,13.786,0,0,0,3.1-5.436,22.8,22.8,0,0,0,.936-6.624V22.2H5.632V32.568H23.416V51.72a14.2,14.2,0,0,1-.4,3.672A5.294,5.294,0,0,1,21.8,57.7a4.318,4.318,0,0,1-1.98,1.188,9.876,9.876,0,0,1-2.664.324,8.687,8.687,0,0,1-4.32-1.224,16.311,16.311,0,0,1-4.176-3.528ZM45.375,69H57.759V50.424h10.08V69H80.223V22.2H67.839V39.624H57.759V22.2H45.375V69ZM89.907,56.436a21.284,21.284,0,0,0,4.968,7.488,20.318,20.318,0,0,0,7.236,4.464,25.561,25.561,0,0,0,8.712,1.476,19.5,19.5,0,0,0,8.136-1.728,20.079,20.079,0,0,0,6.84-5.184l-6.768-7.488a13.651,13.651,0,0,1-3.348,2.7,8.225,8.225,0,0,1-4.14,1.044,9.773,9.773,0,0,1-7.776-3.528q-3.024-3.527-3.024-10.152a18.915,18.915,0,0,1,.792-5.688,13.062,13.062,0,0,1,2.16-4.248,9.541,9.541,0,0,1,3.24-2.664,8.9,8.9,0,0,1,4.032-.936,9.788,9.788,0,0,1,4.1.792,14.263,14.263,0,0,1,3.384,2.232l6.768-7.632a26.241,26.241,0,0,0-6.12-4.212,17.654,17.654,0,0,0-8.136-1.836,24,24,0,0,0-8.928,1.656,20.976,20.976,0,0,0-7.272,4.788,22.526,22.526,0,0,0-4.9,7.7,28.438,28.438,0,0,0-1.8,10.476A27.588,27.588,0,0,0,89.907,56.436ZM132.134,69h12.384V54.168h5.76a25.438,25.438,0,0,0,7.056-.972,17.842,17.842,0,0,0,5.976-2.952,14.355,14.355,0,0,0,4.14-5.076A16.419,16.419,0,0,0,169,37.752a16.239,16.239,0,0,0-1.512-7.38,13.127,13.127,0,0,0-4.068-4.824,16.058,16.058,0,0,0-5.976-2.592,33.115,33.115,0,0,0-7.164-.756H132.134V69Zm12.384-24.624V31.992H149.7a9.3,9.3,0,0,1,5.328,1.3q1.872,1.3,1.872,4.464a6.542,6.542,0,0,1-1.764,4.9q-1.766,1.728-5.436,1.728h-5.184ZM177.853,69h12.384V51.864H206.8V41.5h-16.56V32.568h19.368V22.2H177.853V69Z" transform="translate(-1.688 -21.344)"/>
</svg>
